<?xml version="1.0" encoding="iso-8859-1"?>
<!-- Generator: Adobe Illustrator 18.0.0, SVG Export Plug-In . SVG Version: 6.00 Build 0)  -->
<!DOCTYPE svg PUBLIC "-//W3C//DTD SVG 1.1//EN" "http://www.w3.org/Graphics/SVG/1.1/DTD/svg11.dtd">
<svg version="1.1" id="Capa_1" xmlns="http://www.w3.org/2000/svg" xmlns:xlink="http://www.w3.org/1999/xlink" x="0px" y="0px"
	 viewBox="0 0 335.071 335.071" style="enable-background:new 0 0 335.071 335.071;" xml:space="preserve">
<g>
	<g>
		<polygon style="fill:#CE593F;" points="55.67,149.939 55.625,149.939 61.108,176.647 		"/>
		<path style="fill:#CE593F;" d="M236.89,165.939c-12.736,16-39.376,28.931-69.354,28.931c-34.364,0-70.277-31.931-68.4-28.931
			H70.659l31.344,153h142.831l31.582-153H236.89z M210.727,287.36c-11.637,8.147-26.977,12.634-43.191,12.634
			c-16.215,0-31.554-4.487-43.191-12.634c-12.452-8.718-19.31-20.572-19.31-33.379c0-12.807,6.858-24.661,19.31-33.379
			c11.637-8.147,26.977-12.634,43.191-12.634c16.214,0,31.554,4.487,43.191,12.634c12.453,8.718,19.31,20.572,19.31,33.379
			C230.037,266.788,223.18,278.642,210.727,287.36z"/>
	</g>
	<path style="fill:#FDD44B;" d="M90.873,134.939h4.995c4.735,0,8.856,3.407,8.856,7.559c0,4.792,0.149,9.519,6.149,13.852V59.939
		h-20V134.939z"/>
	<path style="fill:#FDD44B;" d="M209.873,15.034v12.905h-18v148.046c8-1.786,13-4.255,18-7.223V15.034L209.873,15.034z"/>
	<path style="fill:#FDD44B;" d="M242.873,48.133v13.806h-20v94.412c2-4.332,5.573-9.061,5.573-13.853
		c0-4.152,3.602-7.559,8.199-7.559h6.228V48.133L242.873,48.133z"/>
	<path style="fill:#FDD44B;" d="M177.873,64.91v15.029h-23V64.91l0,0v113.82c3,0.291,7.826,0.444,11.5,0.444
		c3.673,0,9.5-0.153,11.5-0.444V64.91L177.873,64.91z"/>
	<path style="fill:#FDD44B;" d="M144.873,29.972v13.967h-20v124.822c8,2.97,15,5.438,20,7.224V29.972L144.873,29.972z"/>
	<path style="fill:#CE593F;" d="M257.712,92.412v42.611h24.208c0.581-8.53,0.355-23.939-7.301-33.743
		C270.643,96.189,265.099,93.28,257.712,92.412z"/>
	<path style="fill:#3F2D20;" d="M286.509,92.079c-6.827-8.774-16.518-13.734-28.797-14.768V40.616c0-4.152-3.366-7.517-7.517-7.517
		h-25.547V7.517c0-4.152-3.366-7.517-7.517-7.517h-33.064c-4.152,0-7.517,3.365-7.517,7.517v42.359h-18.029V22.455
		c0-4.152-3.366-7.517-7.517-7.517H117.94c-4.151,0-7.517,3.365-7.517,7.517v8.538H84.877c-4.151,0-7.517,3.365-7.517,7.517v38.8
		c-12.279,1.034-21.969,5.994-28.797,14.768c-15.092,19.394-9.774,50.465-9.54,51.779c0.006,0.033,37.707,185.196,37.707,185.196
		c0.713,3.502,3.792,6.018,7.366,6.018h166.88c3.574,0,6.653-2.516,7.366-6.018c0,0,37.701-185.163,37.707-185.196
		C296.282,142.544,301.601,111.472,286.509,92.079z M90.236,320.037l-34.611-169.98h35.476
		c5.635,24.596,38.349,44.151,76.435,44.151c38.085,0,70.8-19.555,76.434-44.151h35.477l-34.612,169.98H90.236z M77.36,92.412
		v42.611H53.115c-0.631-9.436,0.106-24.45,7.313-33.711C64.405,96.201,69.959,93.282,77.36,92.412z M92.394,46.027h18.028V156.35
		c-3.29-4.333-5.144-9.018-5.144-13.81c0-4.152-3.366-7.517-7.517-7.517h-5.368V46.027z M242.677,135.023h-5.368
		c-4.152,0-7.517,3.365-7.517,7.517c0,4.792-1.855,9.479-5.145,13.811V48.133h18.029V135.023z M191.585,15.034h18.029v153.728
		c-5.311,2.968-11.418,5.437-18.029,7.223V15.034z M176.55,178.731c-2.966,0.291-5.977,0.444-9.014,0.444
		c-3.038,0-6.049-0.153-9.015-0.444V64.91h18.029V178.731z M125.457,29.972h18.03v146.013c-6.611-1.786-12.719-4.255-18.03-7.224
		V29.972z M281.92,135.023h-24.208V92.412c7.387,0.867,12.932,3.776,16.908,8.868C282.276,111.084,282.501,126.493,281.92,135.023z"
		/>
	<path style="fill:#3F2D20;" d="M210.727,220.603c-11.637-8.147-26.976-12.634-43.191-12.634c-16.215,0-31.554,4.487-43.191,12.634
		c-12.453,8.718-19.311,20.572-19.311,33.379c0,12.806,6.858,24.661,19.311,33.379c11.637,8.147,26.976,12.634,43.191,12.634
		c16.214,0,31.554-4.487,43.191-12.634c12.453-8.718,19.311-20.572,19.311-33.379C230.037,241.175,223.18,229.321,210.727,220.603z
		 M167.536,284.96c-25.731,0-47.468-14.187-47.468-30.979s21.737-30.979,47.468-30.979c25.73,0,47.467,14.187,47.467,30.979
		S193.266,284.96,167.536,284.96z"/>
	<polygon style="fill:#CE593F;" points="243.971,150.057 243.97,150.057 243.97,150.061 	"/>
	<g>
		<path style="fill:#CE593F;" d="M55.411,111.334c-2.288,7.344-2.672,15.552-2.397,21.858
			C52.739,126.885,53.123,118.677,55.411,111.334z"/>
		<path style="fill:#CE593F;" d="M77.873,92.412v14.985c-13,3.007-11.678,22.542-12.57,27.542h12.57V92.412L77.873,92.412z"/>
	</g>
	<g>
		<path style="fill:#EF8829;" d="M171.864,223.151c0.638,0.041,1.265,0.107,1.897,0.165
			C173.129,223.258,172.503,223.191,171.864,223.151z"/>
		<path style="fill:#EF8829;" d="M175.306,223.474c-22.086,2.562-39.483,15.487-39.483,30.507c0,15.02,17.397,27.945,39.482,30.507
			c22.183-2.506,39.698-15.44,39.698-30.507C215.003,238.915,197.488,225.98,175.306,223.474z"/>
		<path style="fill:#EF8829;" d="M173.755,284.648c-0.629,0.057-1.255,0.123-1.891,0.164
			C172.501,284.772,173.125,284.705,173.755,284.648z"/>
	</g>
</g>
<g>
</g>
<g>
</g>
<g>
</g>
<g>
</g>
<g>
</g>
<g>
</g>
<g>
</g>
<g>
</g>
<g>
</g>
<g>
</g>
<g>
</g>
<g>
</g>
<g>
</g>
<g>
</g>
<g>
</g>
</svg>
